# xmcd
#
# Track frame offsets: 
#        150
#        6364
#        18109
#        22615
#        32313
#        34864
#        40279
#        50902
#        74394
#        90552
#        106098
#        118337
#        183102
#        196900
#        217294
#        227210
#        237896
#        257074
#        259632
#        268863
#        272528
#        275184
#        290410
#        297607
#        298614
#        308166
#        330221
#
# Disc length: 4633 seconds
#
# Revision: 0
# Processed by: cddbd v1.5.2PL0 Copyright (c) Steve Scherf et al.
# Submitted via: ExactAudioCopy v0.95b4
#
DISCID=8f12171b
DTITLE=The Beatles  - AB  Road - Complete Purple Chick Set v1.1 Jan.07
DTITLE=Various Artist - D3  FLAC
DYEAR=1900
DGENRE=
TTITLE0=Norwegian Wood
TTITLE1=Maxwell's Silver Hammer 7.64
TTITLE2=Maxwell's Silver Hammer 7.65
TTITLE3=Speak To Me 7.66
TTITLE4=When I'm Sixty-Four 7.67
TTITLE5=When I'm Sixty-Four - Speak To Me 7.68
TTITLE6=Speak To Me 7.69
TTITLE7=Oh! Darling 7.70
TTITLE8=Maxwell's Silver Hammer 7.71
TTITLE9=Maxwell's Silver Hammer 7.72
TTITLE10=Maxwell's Silver Hammer 7.73
TTITLE11=Maxwell's Silver Hammer 7.74
TTITLE12=Maxwell's Silver Hammer 7.75
TTITLE13=Maxwell's Silver Hammer 7.76
TTITLE14=Maxwell's Silver Hammer 7.77
TTITLE15=Maxwell's Silver Hammer 7.78
TTITLE16=Maxwell's Silver Hammer 7.79
TTITLE17=Improvisation 7.80
TTITLE18=A Shot Of Rhythm And Blues 7.81
TTITLE19=(You're So Square) Baby I Don't Care 7.82
TTITLE20=Across The Universe 7.83
TTITLE21=Across The Universe 7.84
TTITLE22=Across The Universe 7.85
TTITLE23=Give Me Some Truth 7.86
TTITLE24=Improvisation 7.87
TTITLE25=Across The Universe 7.88
TTITLE26=Across The Universe 7.89
EXTD=
EXTT0=
EXTT1=
EXTT2=
EXTT3=
EXTT4=
EXTT5=
EXTT6=
EXTT7=
EXTT8=
EXTT9=
EXTT10=
EXTT11=
EXTT12=
EXTT13=
EXTT14=
EXTT15=
EXTT16=
EXTT17=
EXTT18=
EXTT19=
EXTT20=
EXTT21=
EXTT22=
EXTT23=
EXTT24=
EXTT25=
EXTT26=
PLAYORDER=
